<?xml version="1.0" encoding="UTF-8" standalone="no"?>
<!-- Creator: CorelDRAW 2019 (64-Bit Оценочная версия) -->

<svg
   xmlns:dc="http://purl.org/dc/elements/1.1/"
   xmlns:cc="http://creativecommons.org/ns#"
   xmlns:rdf="http://www.w3.org/1999/02/22-rdf-syntax-ns#"
   xmlns:svg="http://www.w3.org/2000/svg"
   xmlns="http://www.w3.org/2000/svg"
   xmlns:sodipodi="http://sodipodi.sourceforge.net/DTD/sodipodi-0.dtd"
   xmlns:inkscape="http://www.inkscape.org/namespaces/inkscape"
   xml:space="preserve"
   width="240"
   height="60.700001"
   version="1.1"
   style="clip-rule:evenodd;fill-rule:evenodd;image-rendering:optimizeQuality;shape-rendering:geometricPrecision;text-rendering:geometricPrecision"
   viewBox="0 0 6349.9998 1606.021"
   id="svg21"
   sodipodi:docname="logo.svg"
   inkscape:version="0.92.4 (33fec40, 2019-01-16)"><metadata
   id="metadata25"><rdf:RDF><cc:Work
       rdf:about=""><dc:format>image/svg+xml</dc:format><dc:type
         rdf:resource="http://purl.org/dc/dcmitype/StillImage" /><dc:title></dc:title></cc:Work></rdf:RDF></metadata><sodipodi:namedview
   pagecolor="#ffffff"
   bordercolor="#666666"
   borderopacity="1"
   objecttolerance="10"
   gridtolerance="10"
   guidetolerance="10"
   inkscape:pageopacity="0"
   inkscape:pageshadow="2"
   inkscape:window-width="1920"
   inkscape:window-height="1025"
   id="namedview23"
   showgrid="false"
   units="px"
   inkscape:zoom="2.3786088"
   inkscape:cx="146.83875"
   inkscape:cy="13.867073"
   inkscape:window-x="0"
   inkscape:window-y="27"
   inkscape:window-maximized="1"
   inkscape:current-layer="_2290833552992" />
 <defs
   id="defs4">
  <style
   type="text/css"
   id="style2">
   <![CDATA[
    .fil1 {fill:#333333}
    .fil0 {fill:#333333;fill-rule:nonzero}
   ]]>
  </style>
 </defs>
 <g
   id="Слой_x0020_1"
   transform="translate(0,-28093.976)">
  <metadata
   id="CorelCorpID_0Corel-Layer" />
  
  <g
   id="_2290833552992"
   transform="matrix(1.9512093,0,0,1.9236229,-3679.0246,13062.391)"
   style="fill:#000000">
   
   
   
  <text
   xml:space="preserve"
   style="font-style:normal;font-weight:normal;font-size:546.27404785px;line-height:1.25;font-family:sans-serif;letter-spacing:0px;word-spacing:0px;fill:#ffffff;fill-opacity:1;stroke:none;stroke-width:13.65685177"
   x="1890.3695"
   y="8059.5205"
   id="text925"
   transform="scale(0.9929058,1.0071449)"><tspan
     sodipodi:role="line"
     x="1890.3695"
     y="8542.8447"
     style="font-style:normal;font-variant:normal;font-weight:normal;font-stretch:normal;font-family:'Lato Black';-inkscape-font-specification:'Lato Black, ';fill:#ffffff;stroke-width:13.65685177"
     id="tspan931" /></text>
<g
   id="g1023"
   transform="matrix(0.9970292,0,0,0.9970292,-332.95787,95.538032)"><text
     transform="scale(0.99290579,1.0071449)"
     id="text913"
     y="8279.0938"
     x="3288.4316"
     style="font-style:normal;font-weight:normal;font-size:546.27404785px;line-height:1.25;font-family:sans-serif;letter-spacing:0px;word-spacing:0px;fill:#40babd;fill-opacity:1;stroke:none;stroke-width:13.65685177"
     xml:space="preserve"><tspan
       style="font-style:normal;font-variant:normal;font-weight:normal;font-stretch:normal;font-family:'Exo 2';-inkscape-font-specification:'Exo 2, ';fill:#40babd;fill-opacity:1;stroke-width:13.65685177"
       y="8279.0938"
       x="3288.4316"
       id="tspan911"
       sodipodi:role="line">frontless</tspan></text>
<g
     transform="matrix(7.288803,7.7479547,-7.638413,7.3933306,2750.6242,7312.7266)"
     id="g1017"
     style="fill:#40babd;fill-opacity:1"><path
       style="fill:#40babd;fill-opacity:1"
       inkscape:connector-curvature="0"
       d="m 50,33.1 c 3.4,0 6.1,-2.7 6.1,-6.1 0,-3.4 -2.7,-6.1 -6.1,-6.1 -3.4,0 -6.1,2.7 -6.1,6.1 0,3.4 2.7,6.1 6.1,6.1 z m 0,-8.4 c 1.3,0 2.3,1 2.3,2.3 0,1.3 -1,2.3 -2.3,2.3 -1.3,0 -2.3,-1 -2.3,-2.3 0,-1.3 1.1,-2.3 2.3,-2.3 z m 8.2,35.6 c 0.2,0 0.4,-0.1 0.6,-0.2 0.3,-0.2 1.7,-1.2 3.1,-4.3 3,2.7 4.3,7 4.3,7 0.2,0.8 1,1.4 1.8,1.4 0.1,0 0.1,0 0.2,0 0.9,-0.1 1.6,-0.8 1.7,-1.8 1,-13.7 -3.7,-21.3 -5.3,-23.4 0,-0.3 0,-0.7 0,-1 C 64.6,20 51.8,7.6 51.3,7.1 50.6,6.4 49.4,6.4 48.6,7.1 48.1,7.6 35.4,20 35.4,38 c 0,0.3 0,0.7 0,1 -1.6,2.1 -6.3,9.7 -5.3,23.4 0.1,0.9 0.8,1.7 1.7,1.8 0.1,0 0.1,0 0.2,0 0.8,0 1.6,-0.6 1.8,-1.4 0,-0.1 1.3,-4.3 4.3,-7 1.4,3.1 2.8,4.1 3.1,4.3 0.2,0.1 0.4,0.2 0.6,0.2 0.1,0 1.6,0.3 3.7,0.6 0.5,3.3 1.4,6.4 2.9,8.5 0.4,0.5 1,0.8 1.6,0.8 0.6,0 1.2,-0.3 1.5,-0.8 1.6,-2.1 2.4,-5.1 2.9,-8.5 2.2,-0.3 3.7,-0.6 3.8,-0.6 z M 66,54.6 c -0.8,-1 -1.8,-1.9 -2.9,-2.7 0.4,-1.6 0.8,-3.4 1,-5.5 0.9,2 1.6,4.8 1.9,8.2 z m -32,0 c 0.3,-3.4 1.1,-6.1 1.9,-8.2 0.3,2.1 0.6,4 1,5.5 -1.2,0.8 -2.1,1.7 -2.9,2.7 z m 9.2,2 c -0.8,-0.9 -3.9,-5.1 -3.9,-18.7 0,-13 7.6,-23.1 10.8,-26.7 3.1,3.6 10.8,13.6 10.8,26.7 0,13.7 -3.2,17.9 -3.9,18.6 -0.4,0.1 -1.1,0.2 -2,0.3 0.4,-5.7 -0.1,-11 -0.2,-12 0,-0.5 -0.3,-0.9 -0.6,-1.2 -0.2,-0.1 -1.7,-1.4 -4,-1.4 0,0 0,0 0,0 -2.3,0 -3.8,1.3 -4,1.4 -0.4,0.3 -0.6,0.8 -0.6,1.2 -0.1,1 -0.6,6.4 -0.2,12 -1.1,0 -1.8,-0.1 -2.2,-0.2 z m 6.8,7 C 48.5,58.4 48.8,50.3 49.1,46.2 49.3,46.1 49.6,46 50,46 c 0,0 0,0 0,0 0.4,0 0.7,0.1 0.9,0.2 0.3,4.2 0.5,12.2 -0.9,17.4 z m -4,6.3 c 0.8,0.8 0.8,2 0,2.7 -0.8,0.7 -2,0.8 -2.7,0 -0.9,-0.9 -2.1,-1.4 -3.3,-1.4 -2.6,0 -4.7,2.1 -4.7,4.7 0,1.6 0.8,3.1 2.2,4 0,0 0,0 0,0 0.1,0 0.1,0.1 0.2,0.1 0,0 0.1,0.1 0.1,0.1 0,0 0.1,0.1 0.1,0.2 0,0 0.1,0.1 0.1,0.1 0,0.1 0.1,0.1 0.1,0.2 0,0 0.1,0.1 0.1,0.1 0,0.1 0,0.1 0.1,0.2 0,0.1 0,0.1 0.1,0.2 0,0.1 0,0.1 0,0.2 0,0.1 0,0.1 0,0.2 0,0 0,0 0,0 0,0 0,0.1 0,0.1 0,0.1 0,0.1 0,0.2 0,0.1 0,0.1 0,0.2 0,0.1 0,0.1 -0.1,0.2 0,0.1 -0.1,0.1 -0.1,0.2 0,0 0,0.1 -0.1,0.1 0,0 0,0 0,0 -0.1,0.1 -0.2,0.2 -0.3,0.3 0,0 -0.1,0.1 -0.1,0.1 -0.1,0.1 -0.2,0.1 -0.3,0.2 0,0 -0.1,0 -0.1,0.1 -0.1,0 -0.2,0.1 -0.3,0.1 0,0 -0.1,0 -0.1,0 -0.1,0 -0.3,0.1 -0.4,0.1 -4.4,0 -8.1,3.6 -8.1,8.1 0,1.1 -0.9,1.9 -1.9,1.9 -1,0 -1.9,-0.9 -1.9,-1.9 0,-5.2 3.4,-9.6 8.1,-11.2 -0.8,-1.3 -1.2,-2.8 -1.2,-4.3 0,-4.1 2.9,-7.5 6.7,-8.3 0.3,-1.9 1.2,-3.8 2.5,-5.3 0.7,-0.8 1.9,-0.8 2.7,-0.1 0.8,0.7 0.8,1.9 0.1,2.7 -0.7,0.8 -1.2,1.8 -1.5,2.8 1.6,0.3 2.9,1 4,2.1 z m 29.4,21.6 c 0,1.1 -0.9,1.9 -1.9,1.9 -1.1,0 -1.9,-0.9 -1.9,-1.9 0,-4.4 -3.6,-8.1 -8.1,-8.1 0,0 0,0 -0.1,0 -1.1,0.5 -2.2,0.8 -3.5,0.8 -1.1,0 -1.9,-0.9 -1.9,-1.9 0,-1.1 0.9,-1.9 1.9,-1.9 2.5,0 4.5,-2 4.5,-4.5 0,-2.5 -2,-4.5 -4.5,-4.5 -0.6,0 -1.3,0.1 -1.9,0.4 -1,0.4 -2.1,0 -2.5,-1 -0.4,-1 0,-2.1 1,-2.5 0.4,-0.2 0.9,-0.3 1.3,-0.5 -0.3,-1 -0.7,-2 -1.5,-2.8 -0.7,-0.8 -0.7,-2 0.1,-2.7 0.8,-0.7 2,-0.7 2.7,0.1 1.3,1.5 2.2,3.3 2.5,5.3 3.7,0.8 6.6,4.2 6.6,8.2 0,1.6 -0.5,3.1 -1.2,4.4 4.9,1.4 8.4,5.9 8.4,11.2 z"
       id="path1006" /></g></g></g>
  
 </g>
</svg>